HIERARCHY
ROOT Pelvis
{
	OFFSET 0.000000 0.000000 0.000000
	CHANNELS 6 Xposition Yposition Zposition Xrotation Yrotation Zrotation
	JOINT LeftUpLeg_virtual
	{
		OFFSET 0.000000 0.000000 0.000000
		CHANNELS 3 Xrotation Yrotation Zrotation
		JOINT LeftUpLeg
		{
			OFFSET 18.735201 -5.666702 -4.541200
			CHANNELS 3 Xrotation Yrotation Zrotation
			JOINT LeftLeg
			{
				OFFSET -0.021200 -31.938179 0.493100
				CHANNELS 3 Xrotation Yrotation Zrotation
				JOINT LeftFoot
				{
					OFFSET 0.021200 -31.938179 -4.336299
					CHANNELS 3 Xrotation Yrotation Zrotation
					JOINT LeftToeBase
					{
						OFFSET 0.943001 -26.722000 15.023500
						CHANNELS 3 Xrotation Yrotation Zrotation
						End Site
						{
							OFFSET 0 0 0
						}
					}
				}
			}
		}
	}
	JOINT RightUpLeg_virtual
	{
		OFFSET 0.000000 0.000000 0.000000
		CHANNELS 3 Xrotation Yrotation Zrotation
		JOINT RightUpLeg
		{
			OFFSET -18.735201 -5.666702 -4.541200
			CHANNELS 3 Xrotation Yrotation Zrotation
			JOINT RightLeg
			{
				OFFSET 0.018946 -31.938133 0.493100
				CHANNELS 3 Xrotation Yrotation Zrotation
				JOINT RightFoot
				{
					OFFSET -0.018946 -31.938126 -4.336299
					CHANNELS 3 Xrotation Yrotation Zrotation
					JOINT RightToeBase
					{
						OFFSET -0.943001 -26.722004 15.023500
						CHANNELS 3 Xrotation Yrotation Zrotation
						End Site
						{
							OFFSET 0 0 0
						}
					}
				}
			}
		}
	}
	JOINT Hips_virtual
	{
		OFFSET 0.000000 0.000000 0.000000
		CHANNELS 3 Xrotation Yrotation Zrotation
		JOINT Hips
		{
			OFFSET -0.000000 -0.000000 -0.000000
			CHANNELS 3 Xrotation Yrotation Zrotation
			JOINT Spine
			{
				OFFSET 0.000000 10.199997 -0.299500
				CHANNELS 3 Xrotation Yrotation Zrotation
				JOINT Spine1
				{
					OFFSET 0.000000 11.900002 -1.516600
					CHANNELS 3 Xrotation Yrotation Zrotation
					JOINT Spine2
					{
						OFFSET 0.000000 13.600006 -2.842500
						CHANNELS 3 Xrotation Yrotation Zrotation
						JOINT Neck_virtual
						{
							OFFSET 0.000000 0.000000 0.000000
							CHANNELS 3 Xrotation Yrotation Zrotation
							JOINT Neck
							{
								OFFSET 0.000000 9.624100 -2.890100
								CHANNELS 3 Xrotation Yrotation Zrotation
								JOINT Head
								{
									OFFSET 0.000000 14.068802 -1.351900
									CHANNELS 3 Xrotation Yrotation Zrotation
									End Site
									{
										OFFSET 0 0 0
									}
								}
							}
						}
						JOINT LeftShoulder_virtual
						{
							OFFSET 0.000000 0.000000 0.000000
							CHANNELS 3 Xrotation Yrotation Zrotation
							JOINT LeftShoulder
							{
								OFFSET 15.263000 10.923401 -0.547700
								CHANNELS 3 Xrotation Yrotation Zrotation
								JOINT LeftArm
								{
									OFFSET 25.438599 -2.830597 -13.032500
									CHANNELS 3 Xrotation Yrotation Zrotation
									JOINT LeftForeArm
									{
										OFFSET 29.960503 0.000000 0.000000
										CHANNELS 3 Xrotation Yrotation Zrotation
										JOINT LeftHand
										{
											OFFSET 27.849251 0.000000 0.000000
											CHANNELS 3 Xrotation Yrotation Zrotation
											End Site
											{
												OFFSET 0 0 0
											}
										}
									}
								}
							}
						}
						JOINT RightShoulder_virtual
						{
							OFFSET 0.000000 0.000000 0.000000
							CHANNELS 3 Xrotation Yrotation Zrotation
							JOINT RightShoulder
							{
								OFFSET -15.263000 10.923401 -0.547700
								CHANNELS 3 Xrotation Yrotation Zrotation
								JOINT RightArm
								{
									OFFSET -25.438599 -2.830597 -13.032500
									CHANNELS 3 Xrotation Yrotation Zrotation
									JOINT RightForeArm
									{
										OFFSET -29.960503 0.000000 0.000000
										CHANNELS 3 Xrotation Yrotation Zrotation
										JOINT RightHand
										{
											OFFSET -27.849251 0.000000 0.000000
											CHANNELS 3 Xrotation Yrotation Zrotation
											End Site
											{
												OFFSET 0 0 0
											}
										}
									}
								}
							}
						}
					}
				}
			}
		}
	}
}
MOTION
Frames: 6
Frame Time: 0.03333333
2.677882 83.664436 -2.241082 0.000000 0.000000 0.000000 -0.854643 -14.571001 -6.217354 -48.496604 8.708002 14.180829 55.912567 -5.537007 4.278606 0.627641 -7.999368 -3.905143 0.000000 0.000000 0.000000 2.306742 -14.915060 2.405845 -30.103089 -8.705905 -14.538203 29.877221 -7.981248 1.527085 -18.596618 -12.482833 7.932604 0.000000 0.000000 0.000000 15.633364 9.102713 -3.914484 10.037747 -18.631513 -20.539429 12.429442 2.095259 -17.779534 8.768687 2.134787 -11.624879 0.000000 0.000000 0.000000 7.527777 4.249521 -10.622764 -0.457395 0.578293 -1.800848 0.000000 0.000000 0.000000 5.595735 4.709951 -6.631811 0.880379 -7.918054 -2.138836 -26.951327 -31.618100 -70.776613 -157.352764 -83.351906 -159.784585 0.000000 0.000000 0.000000 7.889794 2.564805 -7.329929 1.459447 -3.417292 -14.725271 8.929432 51.230947 -3.691837 4.811009 85.043300 0.007206 0.000000 0.000000 0.000000 
2.627482 83.717735 -2.230349 0.000000 0.000000 0.000000 -0.901098 -14.174630 -6.189012 -48.527767 8.763951 14.215455 55.757474 -5.480270 4.282360 0.509242 -7.936864 -3.849892 0.000000 0.000000 0.000000 2.348731 -14.758751 2.365779 -29.988704 -8.665671 -14.544557 29.950045 -7.921583 1.514957 -18.492770 -12.422607 7.945286 0.000000 0.000000 0.000000 15.597765 9.053811 -3.882589 9.824953 -18.708115 -20.473480 12.546144 2.085011 -17.692818 8.845035 2.118413 -11.564259 0.000000 0.000000 0.000000 7.774728 4.213731 -10.492765 -0.312425 0.565151 -1.736761 0.000000 0.000000 0.000000 5.606651 4.709326 -6.563450 0.869750 -7.841331 -1.968034 -26.633406 -31.580128 -70.402421 -156.313524 -83.807548 -158.802609 0.000000 0.000000 0.000000 8.004130 2.545214 -7.299278 1.581456 -3.260177 -14.811468 8.871804 51.372038 -3.539717 4.443436 85.016696 0.421441 0.000000 0.000000 0.000000 
2.563563 83.769653 -2.223343 0.000000 0.000000 0.000000 -0.938253 -13.839931 -6.145542 -48.542148 8.802478 14.255386 55.602634 -5.420361 4.274411 0.387689 -7.864968 -3.809972 0.000000 0.000000 0.000000 2.395459 -14.583321 2.328365 -29.864869 -8.622103 -14.545586 30.030668 -7.874904 1.506505 -18.382245 -12.376223 7.955934 0.000000 0.000000 0.000000 15.550350 8.993388 -3.845947 9.600102 -18.799997 -20.380320 12.664238 2.073369 -17.602441 8.921082 2.102161 -11.501030 0.000000 0.000000 0.000000 8.014376 4.181584 -10.360026 -0.169683 0.553192 -1.671466 0.000000 0.000000 0.000000 5.619765 4.709886 -6.497823 0.860019 -7.763509 -1.810111 -26.343524 -31.541267 -70.025155 -155.095073 -84.258539 -157.636886 0.000000 0.000000 0.000000 8.120005 2.528471 -7.268220 1.709497 -3.090159 -14.899924 8.803249 51.501942 -3.362599 4.025945 84.960477 0.891169 0.000000 0.000000 0.000000 
2.487823 83.820374 -2.224345 0.000000 0.000000 0.000000 -0.967529 -13.569564 -6.087986 -48.540450 8.823096 14.299496 55.446431 -5.356752 4.254070 0.263197 -7.782989 -3.785685 0.000000 0.000000 0.000000 2.444180 -14.392293 2.293002 -29.735543 -8.575469 -14.542087 30.116616 -7.842336 1.501361 -18.267315 -12.344727 7.963368 0.000000 0.000000 0.000000 15.494344 8.925240 -3.805589 9.374887 -18.907938 -20.257731 12.786843 2.060654 -17.506967 8.998658 2.086136 -11.434639 0.000000 0.000000 0.000000 8.244668 4.153123 -10.224551 -0.030482 0.541750 -1.604785 0.000000 0.000000 0.000000 5.636364 4.710858 -6.433846 0.852656 -7.691742 -1.659401 -26.088288 -31.510306 -69.647726 -153.726535 -84.692932 -156.314453 0.000000 0.000000 0.000000 8.237887 2.514812 -7.235521 1.843367 -2.909433 -14.982920 8.730076 51.621982 -3.164789 3.582979 84.871835 1.392713 0.000000 0.000000 0.000000 
2.401731 83.870361 -2.237295 0.000000 0.000000 0.000000 -0.990480 -13.361887 -6.017862 -48.523614 8.826381 14.346452 55.286331 -5.288713 4.221315 0.135302 -7.690324 -3.776164 0.000000 0.000000 0.000000 2.492116 -14.192059 2.259378 -29.604895 -8.526852 -14.534789 30.205040 -7.824914 1.499532 -18.150881 -12.329254 7.967064 0.000000 0.000000 0.000000 15.433135 8.854124 -3.762679 9.161638 -19.029681 -20.104887 12.916953 2.047698 -17.404917 9.079534 2.070658 -11.364479 0.000000 0.000000 0.000000 8.464234 4.128154 -10.086507 0.104204 0.530092 -1.536682 0.000000 0.000000 0.000000 5.657727 4.711339 -6.370150 0.849359 -7.633226 -1.509406 -25.871525 -31.497551 -69.273527 -152.267866 -85.099273 -154.894183 0.000000 0.000000 0.000000 8.357772 2.504508 -7.199839 1.982520 -2.719518 -15.052422 8.655088 51.733653 -2.949463 3.135952 84.748714 1.904622 0.000000 0.000000 0.000000 
2.306275 83.920464 -2.265468 0.000000 0.000000 0.000000 -1.008430 -13.211130 -5.937095 -48.492523 8.813986 14.394769 55.118937 -5.215093 4.176873 0.002983 -7.586299 -3.779080 0.000000 0.000000 0.000000 2.536944 -13.991285 2.227936 -29.476723 -8.478190 -14.523938 30.293108 -7.823333 1.501218 -18.035987 -12.330687 7.967030 0.000000 0.000000 0.000000 15.369927 8.785144 -3.718395 8.971682 -19.160246 -19.922733 13.056906 2.035919 -17.295120 9.165114 2.056311 -11.290066 0.000000 0.000000 0.000000 8.672360 4.106412 -9.946551 0.233764 0.517567 -1.467455 0.000000 0.000000 0.000000 5.684932 4.710592 -6.305300 0.851857 -7.593832 -1.353706 -25.693816 -31.512778 -68.906671 -150.811437 -85.467667 -153.468600 0.000000 0.000000 0.000000 8.479154 2.497868 -7.159895 2.126158 -2.521031 -15.100893 8.579085 51.839005 -2.719917 2.705183 84.589769 2.405736 0.000000 0.000000 0.000000 
